<svg xmlns="http://www.w3.org/2000/svg" width="1200" height="630" viewBox="0 0 1200 630"><rect width="1200" height="630" fill="#0f1420"/><text x="600" y="120" text-anchor="middle" font-family="Georgia, serif" font-size="52" font-weight="700" fill="#d4a94e">EU4 Trade Node Map</text><text x="600" y="165" text-anchor="middle" font-family="Arial, sans-serif" font-size="20" fill="#a0a8b8">Interactive Flow Chart</text><circle cx="950" cy="250" r="14" fill="#f0d48a" stroke="#e05252" stroke-width="3"/><text x="950" y="290" text-anchor="middle" font-family="Arial, sans-serif" font-size="14" font-weight="700" fill="#a0a8b8">English Channel</text><circle cx="950" cy="400" r="14" fill="#f0d48a" stroke="#e05252" stroke-width="3"/><text x="950" y="440" text-anchor="middle" font-family="Arial, sans-serif" font-size="14" font-weight="700" fill="#a0a8b8">Genoa</text><circle cx="950" cy="550" r="14" fill="#f0d48a" stroke="#e05252" stroke-width="3"/><text x="950" y="590" text-anchor="middle" font-family="Arial, sans-serif" font-size="14" font-weight="700" fill="#a0a8b8">Venice</text><circle cx="700" cy="200" r="10" fill="#3a4768" stroke="#fff" stroke-width="2"/><text x="700" y="180" text-anchor="middle" font-family="Arial, sans-serif" font-size="12" fill="#6b7280">Champagne</text><circle cx="700" cy="320" r="10" fill="#3a4768" stroke="#fff" stroke-width="2"/><text x="700" y="300" text-anchor="middle" font-family="Arial, sans-serif" font-size="12" fill="#6b7280">Bordeaux</text><circle cx="700" cy="450" r="10" fill="#3a4768" stroke="#fff" stroke-width="2"/><text x="700" y="430" text-anchor="middle" font-family="Arial, sans-serif" font-size="12" fill="#6b7280">Sevilla</text><circle cx="700" cy="560" r="10" fill="#3a4768" stroke="#fff" stroke-width="2"/><text x="700" y="540" text-anchor="middle" font-family="Arial, sans-serif" font-size="12" fill="#6b7280">Ragusa</text><circle cx="450" cy="250" r="10" fill="#3a4768" stroke="#fff" stroke-width="2"/><text x="450" y="230" text-anchor="middle" font-family="Arial, sans-serif" font-size="12" fill="#6b7280">North Sea</text><circle cx="450" cy="400" r="10" fill="#3a4768" stroke="#fff" stroke-width="2"/><text x="450" y="380" text-anchor="middle" font-family="Arial, sans-serif" font-size="12" fill="#6b7280">Alexandria</text><circle cx="450" cy="520" r="10" fill="#3a4768" stroke="#fff" stroke-width="2"/><text x="450" y="500" text-anchor="middle" font-family="Arial, sans-serif" font-size="12" fill="#6b7280">Constantinople</text><circle cx="200" cy="300" r="10" fill="#3a4768" stroke="#fff" stroke-width="2"/><text x="200" y="280" text-anchor="middle" font-family="Arial, sans-serif" font-size="12" fill="#6b7280">Caribbean</text><circle cx="200" cy="450" r="10" fill="#3a4768" stroke="#fff" stroke-width="2"/><text x="200" y="430" text-anchor="middle" font-family="Arial, sans-serif" font-size="12" fill="#6b7280">Ivory Coast</text><line x1="710" y1="200" x2="936" y2="250" stroke="#2a3550" stroke-width="2"/><line x1="710" y1="320" x2="936" y2="400" stroke="#2a3550" stroke-width="2"/><line x1="710" y1="450" x2="936" y2="400" stroke="#2a3550" stroke-width="2"/><line x1="710" y1="560" x2="936" y2="550" stroke="#2a3550" stroke-width="2"/><line x1="460" y1="250" x2="690" y2="200" stroke="#2a3550" stroke-width="2"/><line x1="460" y1="400" x2="690" y2="450" stroke="#2a3550" stroke-width="2"/><line x1="460" y1="520" x2="690" y2="560" stroke="#2a3550" stroke-width="2"/><line x1="210" y1="300" x2="440" y2="250" stroke="#2a3550" stroke-width="2"/><line x1="210" y1="450" x2="440" y2="400" stroke="#2a3550" stroke-width="2"/><circle cx="800" cy="225" r="4" fill="#e05252"/><circle cx="800" cy="360" r="4" fill="#e05252"/><circle cx="800" cy="425" r="4" fill="#e05252"/><circle cx="800" cy="505" r="4" fill="#e05252"/><rect x="450" y="580" width="300" height="40" rx="20" fill="rgba(212,169,78,0.15)" stroke="#d4a94e" stroke-width="1.5"/><text x="600" y="606" text-anchor="middle" font-family="Arial, sans-serif" font-size="16" font-weight="700" fill="#d4a94e">✦ Interactive — Click any node</text></svg>